<?xml version="1.0" encoding="utf-8"?>
<!-- Generator: Adobe Illustrator 26.3.1, SVG Export Plug-In . SVG Version: 6.00 Build 0)  -->
<svg version="1.1" id="Layer_1" xmlns="http://www.w3.org/2000/svg" xmlns:xlink="http://www.w3.org/1999/xlink" x="0px" y="0px"
	 viewBox="0 0 32 32" style="enable-background:new 0 0 32 32;" xml:space="preserve">
<style type="text/css">
	.st0{fill:#FFFFFF;}
</style>
<path class="st0" d="M9.7,16.7c0,0.9-0.5,1.4-1.3,1.4c-0.7,0-1.3-0.5-1.3-1.4c0-0.9,0.5-1.4,1.3-1.4C9.1,15.3,9.7,15.9,9.7,16.7z"/>
<path class="st0" d="M17.4,15.4c-0.7,0-1.3,0.5-1.3,1.4c0,0.8,0.6,1.4,1.3,1.4c0.7,0,1.3-0.5,1.3-1.4C18.7,15.9,18.1,15.4,17.4,15.4
	z M17.4,15.4c-0.7,0-1.3,0.5-1.3,1.4c0,0.8,0.6,1.4,1.3,1.4c0.7,0,1.3-0.5,1.3-1.4C18.7,15.9,18.1,15.4,17.4,15.4z M0,0v32h32V0H0z
	 M26.5,19.1L26.5,19.1c-0.1,1.8-1.5,2.5-2.8,2.5v-1.4h0.1c0.7,0,1.2-0.4,1.2-1.1v-0.5c-0.3,0.4-0.8,0.7-1.5,0.7
	c-1.5,0-2.6-1.2-2.6-2.7s1.1-2.7,2.6-2.7c0.7,0,1.2,0.3,1.5,0.7v-0.5h1.5V19.1z M13.6,19.4h-1.5v-4.7c0-0.6-0.3-1-0.9-1.1v-1.4
	c1.3,0.1,2.4,0.9,2.4,2.6V19.4z M7.2,19.4H5.6v-7.1h1.6v2.3C7.5,14.2,8.1,14,8.7,14c1.4,0,2.5,1.2,2.5,2.8c0,1.5-1.2,2.7-2.5,2.7
	c-0.7,0-1.2-0.2-1.5-0.6V19.4z M14.7,16.7c0-1.6,1.2-2.8,2.7-2.8s2.7,1.2,2.7,2.8c0,1.6-1.2,2.8-2.7,2.8S14.7,18.3,14.7,16.7z
	 M23.7,15.3c-0.8,0-1.4,0.6-1.4,1.3c0,0.7,0.6,1.3,1.4,1.3c0.8,0,1.4-0.6,1.4-1.3C25.1,15.9,24.5,15.3,23.7,15.3z M18.7,16.8
	c0-0.9-0.6-1.4-1.3-1.4c-0.7,0-1.3,0.5-1.3,1.4c0,0.8,0.6,1.4,1.3,1.4C18.1,18.2,18.7,17.7,18.7,16.8z"/>
<path class="st0" d="M9.7,16.7c0,0.9-0.5,1.4-1.3,1.4c-0.7,0-1.3-0.5-1.3-1.4c0-0.9,0.5-1.4,1.3-1.4C9.1,15.3,9.7,15.9,9.7,16.7z"/>
<path class="st0" d="M17.4,15.4c-0.7,0-1.3,0.5-1.3,1.4c0,0.8,0.6,1.4,1.3,1.4c0.7,0,1.3-0.5,1.3-1.4C18.7,15.9,18.1,15.4,17.4,15.4
	z M17.4,15.4c-0.7,0-1.3,0.5-1.3,1.4c0,0.8,0.6,1.4,1.3,1.4c0.7,0,1.3-0.5,1.3-1.4C18.7,15.9,18.1,15.4,17.4,15.4z M31.9,14.4
	c-0.1-1.1-0.3-2.1-0.6-3.1c-0.1-0.2-0.2-0.5-0.2-0.8v0c-0.1-0.3-0.2-0.5-0.3-0.8c-0.2-0.5-0.5-1-0.7-1.5c-0.3-0.5-0.6-0.9-0.9-1.4
	c-0.2-0.3-0.4-0.6-0.6-0.9c-0.2-0.2-0.4-0.4-0.6-0.7c-0.4-0.4-0.8-0.8-1.2-1.2c-0.2-0.2-0.4-0.4-0.7-0.6c-0.3-0.2-0.6-0.4-0.9-0.6
	c-0.5-0.3-0.9-0.6-1.4-0.9c-0.5-0.3-1-0.5-1.5-0.7C22,1.2,21.8,1.1,21.5,1c0,0,0,0,0,0c-0.2-0.1-0.5-0.2-0.8-0.2
	c-1-0.3-2-0.5-3.1-0.6C17.1,0,16.5,0,16,0s-1.1,0-1.6,0.1c-1.1,0.1-2.1,0.3-3.1,0.6C11,0.8,10.8,0.9,10.5,1c0,0,0,0,0,0
	C10.2,1.1,10,1.2,9.7,1.3C9.2,1.5,8.7,1.8,8.2,2C7.8,2.3,7.3,2.6,6.8,2.9C6.5,3.1,6.3,3.3,6,3.5C5.8,3.7,5.5,3.9,5.3,4.1
	C4.9,4.5,4.5,4.9,4.1,5.3C3.9,5.5,3.7,5.8,3.5,6C3.3,6.3,3.1,6.5,2.9,6.8C2.6,7.3,2.3,7.8,2,8.2c-0.3,0.5-0.5,1-0.7,1.5
	C1.2,10,1.1,10.2,1,10.5v0c-0.1,0.2-0.2,0.5-0.2,0.8c-0.3,1-0.5,2-0.6,3.1C0,14.9,0,15.5,0,16s0,1.1,0.1,1.6
	c0.1,1.1,0.3,2.1,0.6,3.1C0.8,21,0.9,21.2,1,21.5c0.1,0.3,0.2,0.5,0.3,0.8c0.2,0.5,0.5,1,0.7,1.5c0.3,0.5,0.6,0.9,0.9,1.4
	c0.2,0.3,0.4,0.6,0.6,0.9c0.2,0.2,0.4,0.4,0.6,0.7c0.4,0.4,0.8,0.8,1.2,1.2c0.2,0.2,0.4,0.4,0.7,0.6c0.3,0.2,0.6,0.4,0.9,0.6
	c0.5,0.3,0.9,0.6,1.4,0.9c0.5,0.3,1,0.5,1.5,0.7c0.3,0.1,0.5,0.2,0.8,0.3c0.2,0.1,0.5,0.2,0.8,0.2c1,0.3,2,0.5,3.1,0.6
	c0.5,0,1.1,0.1,1.6,0.1s1.1,0,1.6-0.1c1.1-0.1,2.1-0.3,3.1-0.6c0.3-0.1,0.5-0.2,0.8-0.2c0.3-0.1,0.5-0.2,0.8-0.3
	c0.5-0.2,1-0.5,1.5-0.7c0.5-0.3,0.9-0.6,1.4-0.9c0.3-0.2,0.6-0.4,0.9-0.6c0.2-0.2,0.4-0.4,0.7-0.6c0.4-0.4,0.8-0.8,1.2-1.2
	c0.2-0.2,0.4-0.4,0.6-0.7c0.2-0.3,0.4-0.6,0.6-0.9c0.3-0.5,0.6-0.9,0.9-1.4c0.3-0.5,0.5-1,0.7-1.5c0.1-0.3,0.2-0.5,0.3-0.8
	c0.1-0.2,0.2-0.5,0.2-0.8c0.3-1,0.5-2,0.6-3.1c0-0.5,0.1-1.1,0.1-1.6S32,14.9,31.9,14.4z M8.7,19.5c-0.7,0-1.2-0.2-1.5-0.6v0.5H5.6
	v-7.1h1.6v2.3C7.5,14.2,8.1,14,8.7,14c1.4,0,2.5,1.2,2.5,2.8C11.2,18.3,10,19.5,8.7,19.5z M13.6,19.4h-1.5v-4.7c0-0.6-0.3-1-0.9-1.1
	v-1.4c1.3,0.1,2.4,0.9,2.4,2.6V19.4z M17.4,19.5c-1.5,0-2.7-1.2-2.7-2.8c0-1.6,1.2-2.8,2.7-2.8s2.7,1.2,2.7,2.8
	C20.1,18.3,18.9,19.5,17.4,19.5z M26.5,19.1L26.5,19.1c-0.1,1.8-1.5,2.5-2.8,2.5v-1.4h0.1c0.7,0,1.2-0.4,1.2-1.1v-0.5
	c-0.3,0.4-0.8,0.7-1.5,0.7c-1.5,0-2.6-1.2-2.6-2.7s1.1-2.7,2.6-2.7c0.7,0,1.2,0.3,1.5,0.7v-0.5h1.5V19.1z M23.7,15.3
	c-0.8,0-1.4,0.6-1.4,1.3c0,0.7,0.6,1.3,1.4,1.3c0.8,0,1.4-0.6,1.4-1.3C25.1,15.9,24.5,15.3,23.7,15.3z M17.4,15.4
	c-0.7,0-1.3,0.5-1.3,1.4c0,0.8,0.6,1.4,1.3,1.4c0.7,0,1.3-0.5,1.3-1.4C18.7,15.9,18.1,15.4,17.4,15.4z"/>
<path class="st0" d="M18.7,16.8c0,0.9-0.6,1.4-1.3,1.4c-0.7,0-1.3-0.6-1.3-1.4c0-0.9,0.6-1.4,1.3-1.4C18.1,15.4,18.7,15.9,18.7,16.8
	z"/>
<path class="st0" d="M31.9,14.4c-0.1-1.1-0.3-2.1-0.6-3.1c-0.1-0.2-0.2-0.5-0.2-0.8v0c-0.1-0.3-0.2-0.5-0.3-0.8
	c-0.2-0.5-0.5-1-0.7-1.5c-0.3-0.5-0.6-0.9-0.9-1.4c-0.2-0.3-0.4-0.6-0.6-0.9c-0.2-0.2-0.4-0.4-0.6-0.7c-0.4-0.4-0.8-0.8-1.2-1.2
	c-0.2-0.2-0.4-0.4-0.7-0.6c-0.3-0.2-0.6-0.4-0.9-0.6c-0.5-0.3-0.9-0.6-1.4-0.9c-0.5-0.3-1-0.5-1.5-0.7C22,1.2,21.8,1.1,21.5,1
	c0,0,0,0,0,0c-0.2-0.1-0.5-0.2-0.8-0.2c-1-0.3-2-0.5-3.1-0.6C17.1,0,16.5,0,16,0s-1.1,0-1.6,0.1c-1.1,0.1-2.1,0.3-3.1,0.6
	C11,0.8,10.8,0.9,10.5,1c0,0,0,0,0,0C10.2,1.1,10,1.2,9.7,1.3C9.2,1.5,8.7,1.8,8.2,2C7.8,2.3,7.3,2.6,6.8,2.9C6.5,3.1,6.3,3.3,6,3.5
	C5.8,3.7,5.5,3.9,5.3,4.1C4.9,4.5,4.5,4.9,4.1,5.3C3.9,5.5,3.7,5.8,3.5,6C3.3,6.3,3.1,6.5,2.9,6.8C2.6,7.3,2.3,7.8,2,8.2
	c-0.3,0.5-0.5,1-0.7,1.5C1.2,10,1.1,10.2,1,10.5v0c-0.1,0.2-0.2,0.5-0.2,0.8c-0.3,1-0.5,2-0.6,3.1C0,14.9,0,15.5,0,16s0,1.1,0.1,1.6
	c0.1,1.1,0.3,2.1,0.6,3.1C0.8,21,0.9,21.2,1,21.5c0.1,0.3,0.2,0.5,0.3,0.8c0.2,0.5,0.5,1,0.7,1.5c0.3,0.5,0.6,0.9,0.9,1.4
	c0.2,0.3,0.4,0.6,0.6,0.9c0.2,0.2,0.4,0.4,0.6,0.7c0.4,0.4,0.8,0.8,1.2,1.2c0.2,0.2,0.4,0.4,0.7,0.6c0.3,0.2,0.6,0.4,0.9,0.6
	c0.5,0.3,0.9,0.6,1.4,0.9c0.5,0.3,1,0.5,1.5,0.7c0.3,0.1,0.5,0.2,0.8,0.3c0.2,0.1,0.5,0.2,0.8,0.2c1,0.3,2,0.5,3.1,0.6
	c0.5,0,1.1,0.1,1.6,0.1s1.1,0,1.6-0.1c1.1-0.1,2.1-0.3,3.1-0.6c0.3-0.1,0.5-0.2,0.8-0.2c0.3-0.1,0.5-0.2,0.8-0.3
	c0.5-0.2,1-0.5,1.5-0.7c0.5-0.3,0.9-0.6,1.4-0.9c0.3-0.2,0.6-0.4,0.9-0.6c0.2-0.2,0.4-0.4,0.7-0.6c0.4-0.4,0.8-0.8,1.2-1.2
	c0.2-0.2,0.4-0.4,0.6-0.7c0.2-0.3,0.4-0.6,0.6-0.9c0.3-0.5,0.6-0.9,0.9-1.4c0.3-0.5,0.5-1,0.7-1.5c0.1-0.3,0.2-0.5,0.3-0.8
	c0.1-0.2,0.2-0.5,0.2-0.8c0.3-1,0.5-2,0.6-3.1c0-0.5,0.1-1.1,0.1-1.6S32,14.9,31.9,14.4z M8.7,19.5c-0.7,0-1.2-0.2-1.5-0.6v0.5H5.6
	v-7.1h1.6v2.3C7.5,14.2,8.1,14,8.7,14c1.4,0,2.5,1.2,2.5,2.8C11.2,18.3,10,19.5,8.7,19.5z M13.6,19.4h-1.5v-4.7c0-0.6-0.3-1-0.9-1.1
	v-1.4c1.3,0.1,2.4,0.9,2.4,2.6V19.4z M17.4,19.5c-1.5,0-2.7-1.2-2.7-2.8c0-1.6,1.2-2.8,2.7-2.8s2.7,1.2,2.7,2.8
	C20.1,18.3,18.9,19.5,17.4,19.5z M26.5,19.1L26.5,19.1c-0.1,1.8-1.5,2.5-2.8,2.5v-1.4h0.1c0.7,0,1.2-0.4,1.2-1.1v-0.5
	c-0.3,0.4-0.8,0.7-1.5,0.7c-1.5,0-2.6-1.2-2.6-2.7s1.1-2.7,2.6-2.7c0.7,0,1.2,0.3,1.5,0.7v-0.5h1.5V19.1z"/>
<path class="st0" d="M9.7,16.7c0,0.9-0.5,1.4-1.3,1.4c-0.7,0-1.3-0.5-1.3-1.4c0-0.9,0.5-1.4,1.3-1.4C9.1,15.3,9.7,15.9,9.7,16.7z"/>
<path class="st0" d="M25.1,16.6c0,0.7-0.6,1.3-1.4,1.3c-0.8,0-1.4-0.6-1.4-1.3c0-0.7,0.6-1.3,1.4-1.3C24.5,15.3,25.1,15.9,25.1,16.6
	z"/>
</svg>
