<svg width="32" height="32" viewBox="0 0 32 32" fill="none" xmlns="http://www.w3.org/2000/svg">
<g clip-path="url(#clip0_109_737)">
<path d="M16 32C24.8366 32 32 24.8366 32 16C32 7.16344 24.8366 0 16 0C7.16344 0 0 7.16344 0 16C0 24.8366 7.16344 32 16 32Z" fill="#08112C"/>
<path d="M17.4001 15.4C16.7001 15.4 16.1001 15.9 16.1001 16.8C16.1001 17.6 16.7001 18.2 17.4001 18.2C18.1001 18.2 18.7001 17.7 18.7001 16.8C18.7001 15.9 18.1001 15.4 17.4001 15.4Z" fill="#7E8592"/>
<path d="M16 0C7.2 0 0 7.2 0 16C0 24.8 7.2 32 16 32C24.8 32 32 24.8 32 16C32 7.2 24.8 0 16 0ZM8.7 19.5C8 19.5 7.5 19.3 7.2 18.9V19.4H5.6V12.3H7.2V14.6C7.5 14.2 8.1 14 8.7 14C10.1 14 11.2 15.2 11.2 16.8C11.2 18.3 10 19.5 8.7 19.5ZM13.7 19.4H12.1V14.7C12.1 14.1 11.8 13.7 11.2 13.6V12.2C12.5 12.3 13.6 13.1 13.6 14.8V19.4H13.7ZM17.4 19.5C15.9 19.5 14.7 18.3 14.7 16.7C14.7 15.1 15.9 13.9 17.4 13.9C18.9 13.9 20.1 15.1 20.1 16.7C20.1 18.3 18.9 19.5 17.4 19.5ZM26.4 19.1C26.4 20.9 25 21.6 23.7 21.6V20.2H23.8C24.5 20.2 25 19.8 25 19.1V18.6C24.7 19 24.2 19.3 23.5 19.3C22 19.3 20.9 18.1 20.9 16.6C20.9 15.1 22 13.9 23.5 13.9C24.2 13.9 24.7 14.2 25 14.6V14.1H26.5V19.1H26.4Z" fill="#7E8592"/>
<path d="M8.4001 15.3C7.6001 15.3 7.1001 15.8 7.1001 16.7C7.1001 17.6 7.7001 18.1 8.4001 18.1C9.2001 18.1 9.7001 17.6 9.7001 16.7C9.7001 15.9 9.1001 15.3 8.4001 15.3Z" fill="#7E8592"/>
<path d="M23.6998 17.9C24.473 17.9 25.0998 17.318 25.0998 16.6C25.0998 15.8821 24.473 15.3 23.6998 15.3C22.9266 15.3 22.2998 15.8821 22.2998 16.6C22.2998 17.318 22.9266 17.9 23.6998 17.9Z" fill="#7E8592"/>
</g>
<defs>
<clipPath id="clip0_109_737">
<rect width="32" height="32" fill="white"/>
</clipPath>
</defs>
</svg>
