<svg width="32" height="32" viewBox="0 0 32 32" fill="none" xmlns="http://www.w3.org/2000/svg">
<rect width="32" height="32" rx="16" fill="#7E8592"/>
<path d="M22.6001 11.6C20.6001 10.2 18.7001 10.1 18.4001 10.1L18.2001 10.3C20.5001 10.9 21.8001 12 21.9001 12.1C18.3001 10.3 14.3001 10.2 10.7001 11.6C10.2001 11.8 9.9001 12 9.8001 12C10.0001 11.9 11.2001 10.8 13.7001 10.2L13.5001 10C13.5001 10 11.5001 9.90001 9.3001 11.5C9.3001 11.5 7.1001 15.2 7.1001 19.9C7.1001 19.9 8.4001 22 11.7001 22.1C11.7001 22.1 12.2001 21.5 12.7001 20.9C11.0001 20.4 10.2001 19.3 10.1001 19.2L10.7001 19.5C12.5001 20.2 14.4001 21.2 17.9001 20.6C18.6001 20.5 19.4001 20.3 20.1001 20C20.6001 19.7 21.2001 19.5 21.8001 19.1C21.7001 19.2 20.9001 20.3 19.1001 20.8C19.5001 21.4 20.1001 22 20.1001 22C23.5001 21.9 24.8001 19.8 24.8001 20C24.8001 15.4 22.6001 11.6 22.6001 11.6ZM13.2001 18.4C12.4001 18.4 11.7001 17.7 11.7001 16.8C11.7001 15.9 12.4001 15.2 13.2001 15.2C14.0001 15.2 14.7001 16 14.7001 16.8C14.7001 17.7 14.0001 18.4 13.2001 18.4ZM18.7001 18.4C17.9001 18.4 17.2001 17.7 17.2001 16.8C17.2001 15.9 17.9001 15.2 18.7001 15.2C19.6001 15.2 20.3001 16 20.3001 16.8C20.3001 17.7 19.6001 18.4 18.7001 18.4Z" fill="#08112C"/>
</svg>
