<?xml version="1.0" encoding="utf-8"?>
<!-- Generator: Adobe Illustrator 26.3.1, SVG Export Plug-In . SVG Version: 6.00 Build 0)  -->
<svg version="1.1" id="Layer_1" xmlns="http://www.w3.org/2000/svg" xmlns:xlink="http://www.w3.org/1999/xlink" x="0px" y="0px"
	 viewBox="0 0 32 32" style="enable-background:new 0 0 32 32;" xml:space="preserve">
<style type="text/css">
	.st0{fill:#FFFFFF;}
</style>
<path class="st0" d="M14.7,16.8c0,0.9-0.7,1.6-1.5,1.6s-1.5-0.7-1.5-1.6c0-0.9,0.7-1.6,1.5-1.6S14.7,16,14.7,16.8z"/>
<path class="st0" d="M20.3,16.8c0,0.9-0.7,1.6-1.6,1.6c-0.8,0-1.5-0.7-1.5-1.6c0-0.9,0.7-1.6,1.5-1.6C19.6,15.2,20.3,16,20.3,16.8z"
	/>
<path class="st0" d="M16,0C11.6,0,7.6,1.8,4.7,4.7C1.8,7.6,0,11.6,0,16s1.8,8.4,4.7,11.3C7.6,30.2,11.6,32,16,32s8.4-1.8,11.3-4.7
	C30.2,24.4,32,20.4,32,16C32,7.2,24.8,0,16,0z M20.1,22c0,0-0.6-0.6-1-1.2c1.8-0.5,2.6-1.6,2.7-1.7c-0.6,0.4-1.2,0.6-1.7,0.9
	c-0.7,0.3-1.5,0.5-2.2,0.6c-3.5,0.6-5.4-0.4-7.2-1.1l-0.6-0.3c0.1,0.1,0.9,1.2,2.6,1.7c-0.5,0.6-1,1.2-1,1.2
	c-3.3-0.1-4.6-2.2-4.6-2.2c0-4.7,2.2-8.4,2.2-8.4c2.2-1.6,4.2-1.5,4.2-1.5l0.2,0.2c-2.5,0.6-3.7,1.7-3.9,1.8c0.1,0,0.4-0.2,0.9-0.4
	c3.6-1.4,7.6-1.3,11.2,0.5c-0.1-0.1-1.4-1.2-3.7-1.8l0.2-0.2c0.3,0,2.2,0.1,4.2,1.5c0,0,2.2,3.8,2.2,8.4
	C24.8,19.8,23.5,21.9,20.1,22z"/>
</svg>
