<?xml version="1.0" encoding="utf-8"?>
<!-- Generator: Adobe Illustrator 26.3.1, SVG Export Plug-In . SVG Version: 6.00 Build 0)  -->
<svg version="1.1" id="Layer_1" xmlns="http://www.w3.org/2000/svg" xmlns:xlink="http://www.w3.org/1999/xlink" x="0px" y="0px"
	 viewBox="0 0 32 32" style="enable-background:new 0 0 32 32;" xml:space="preserve">
<style type="text/css">
	.st0{fill:#FFFFFF;}
</style>
<path class="st0" d="M16,0C11.6,0,7.6,1.8,4.7,4.7C1.8,7.6,0,11.6,0,16s1.8,8.4,4.7,11.3C7.6,30.2,11.6,32,16,32s8.4-1.8,11.3-4.7
	C30.2,24.4,32,20.4,32,16C32,7.2,24.8,0,16,0z M22.7,12.8v0.4c0,5-4.1,9.1-9.1,9.1c-1.7,0-3.4-0.5-4.9-1.4c0.3,0,0.5,0.1,0.8,0
	c1.5,0,2.9-0.5,4-1.4c-1.4,0-2.6-0.9-3-2.2c0.2,0,0.4,0.1,0.6,0.1c0.3,0,0.6,0,0.8-0.1c-1.5-0.3-2.6-1.6-2.6-3.1
	c0.4,0.2,0.9,0.4,1.4,0.4C9.9,14,9.4,13,9.4,11.9c0-0.6,0.2-1.1,0.4-1.6c1.6,2,4,3.2,6.6,3.3c-0.1-0.2-0.1-0.5-0.1-0.7
	c0-1.8,1.4-3.2,3.2-3.2c0.9,0,1.7,0.4,2.3,1c0.7-0.1,1.4-0.4,2-0.8c-0.2,0.7-0.7,1.4-1.4,1.8c0.6-0.1,1.3-0.3,1.8-0.5
	C23.9,11.8,23.4,12.4,22.7,12.8z"/>
</svg>
