<svg width="32" height="32" viewBox="0 0 32 32" fill="none" xmlns="http://www.w3.org/2000/svg">
<rect width="32" height="32" rx="16" fill="#7E8592"/>
<path d="M24.2002 11.2C23.9002 11.8 23.4002 12.4 22.7002 12.8V13.2C22.7002 18.2 18.6002 22.3 13.6002 22.3C11.9002 22.3 10.2002 21.8 8.7002 20.9C9.0002 20.9 9.2002 21 9.5002 20.9C11.0002 20.9 12.4002 20.4 13.5002 19.5C12.1002 19.5 10.9002 18.6 10.5002 17.3C10.7002 17.3 10.9002 17.4 11.1002 17.4C11.4002 17.4 11.7002 17.4 11.9002 17.3C10.4002 17 9.3002 15.7 9.3002 14.2C9.7002 14.4 10.2002 14.6 10.7002 14.6C9.9002 14 9.4002 13 9.4002 11.9C9.4002 11.3 9.6002 10.8 9.8002 10.3C11.4002 12.3 13.8002 13.5 16.4002 13.6C16.3002 13.4 16.3002 13.1 16.3002 12.9C16.3002 11.1 17.7002 9.70001 19.5002 9.70001C20.4002 9.70001 21.2002 10.1 21.8002 10.7C22.5002 10.6 23.2002 10.3 23.8002 9.90001C23.6002 10.6 23.1002 11.3 22.4002 11.7C23.0002 11.6 23.7002 11.4 24.2002 11.2Z" fill="#08112C"/>
</svg>
