<svg width="106" height="24" viewBox="0 0 106 24" fill="none" xmlns="http://www.w3.org/2000/svg">
<g clip-path="url(#clip0_121_370)">
<path d="M28.6255 10.8388C27.2019 12.2824 26.4902 14.1105 26.4902 16.323C26.4902 18.5355 27.2019 20.3674 28.6255 21.8228C30.0491 23.2743 31.8483 24 34.0192 24C36.1902 24 38.0171 23.2743 39.4406 21.8228C40.8642 20.3714 41.576 18.5394 41.576 16.323C41.576 14.1066 40.8642 12.2824 39.4406 10.8388C38.0171 9.39523 36.2099 8.67342 34.0192 8.67342C31.8285 8.67342 30.0491 9.39523 28.6255 10.8388ZM29.9542 16.323C29.9542 14.899 30.3456 13.7888 31.1326 12.9886C31.9195 12.1883 32.8804 11.7882 34.0153 11.7882C35.1502 11.7882 36.1111 12.1883 36.898 12.9886C37.6849 13.7888 38.0764 14.899 38.0764 16.323C38.0764 17.747 37.6809 18.8925 36.898 19.7006C36.1111 20.5126 35.1502 20.9166 34.0153 20.9166C32.8804 20.9166 31.9195 20.5087 31.1326 19.6849C30.3456 18.865 29.9542 17.7431 29.9542 16.3191V16.323ZM44.0712 21.0226C44.3203 21.4855 44.6683 21.9523 45.1151 22.4152C45.562 22.8781 46.1788 23.2586 46.9657 23.5567C47.7527 23.8549 48.6424 24 49.6389 24C51.3709 24 52.7193 23.5293 53.6881 22.5917C54.653 21.6541 55.1354 20.5832 55.1354 19.375C55.1354 18.2883 54.7756 17.3586 54.0598 16.5897C53.3441 15.8209 52.3081 15.2873 50.9517 14.9892L48.7412 14.5459C47.7645 14.3498 47.2781 13.8437 47.2781 13.0356C47.2781 12.5806 47.4759 12.1922 47.8752 11.8666C48.2746 11.541 48.7729 11.3763 49.37 11.3763C50.2281 11.3763 50.8687 11.5999 51.2958 12.0432C51.7228 12.4864 51.9759 12.9886 52.0589 13.5417L54.9852 12.71C54.9258 12.2942 54.7874 11.8784 54.566 11.4665C54.3485 11.0507 54.0322 10.6231 53.6249 10.1759C53.2176 9.73259 52.6442 9.37169 51.9087 9.09317C51.1732 8.81857 50.3269 8.67735 49.37 8.67735C47.8752 8.67735 46.6099 9.13632 45.5738 10.0543C44.5378 10.9722 44.0198 12.0667 44.0198 13.3298C44.0198 14.3576 44.3598 15.2481 45.036 15.9974C45.7122 16.7466 46.681 17.2605 47.9346 17.5391L50.0857 18.0137C51.2206 18.2491 51.79 18.7826 51.79 19.6143C51.79 20.0889 51.5963 20.4851 51.2088 20.799C50.8212 21.1167 50.2874 21.2736 49.6112 21.2736C48.7333 21.2736 48.0374 21.0382 47.5194 20.5636C47.0013 20.0889 46.7127 19.5083 46.6534 18.814L43.6362 19.6456C43.6757 20.1007 43.8181 20.5597 44.0712 21.0226ZM62.8938 12.7375C63.4198 12.1255 64.1434 11.8195 65.0608 11.8195C66.0969 11.8195 66.8521 12.1098 67.3306 12.6943C67.8091 13.2789 68.0464 14.0517 68.0464 15.0206V23.5567H71.5104V14.4282C71.5104 12.7493 71.0517 11.3763 70.1342 10.3093C69.2168 9.24224 67.904 8.70873 66.1918 8.70873C64.3609 8.70873 62.9729 9.31285 62.0397 10.5172V2.0948H58.5757V23.5528H62.0397V15.0755C62.0792 14.1262 62.364 13.3455 62.8899 12.7336L62.8938 12.7375ZM82.0289 21.0382C80.9533 21.0382 80.032 20.6813 79.2648 19.9712C78.4977 19.2612 78.0943 18.3629 78.0548 17.2723H88.692C88.7513 17.1546 88.7829 16.7898 88.7829 16.1739C88.7829 13.883 88.1542 12.0588 86.9007 10.7055C85.6471 9.35208 83.9033 8.67342 81.673 8.67342C79.7631 8.67342 78.1023 9.38346 76.6985 10.8075C75.2947 12.2314 74.5908 14.0477 74.5908 16.2602C74.5908 18.6139 75.3144 20.489 76.7578 21.8934C78.2011 23.2978 79.9608 23.9961 82.0329 23.9961C83.7056 23.9961 85.1133 23.5646 86.2601 22.7055C87.4068 21.8464 88.1858 20.7558 88.605 19.4299L85.6788 18.5119C85.1212 20.1909 83.9072 21.0304 82.0329 21.0304L82.0289 21.0382ZM79.1897 12.5178C79.8263 11.8745 80.6647 11.5528 81.7007 11.5528C82.8356 11.5528 83.7056 11.8588 84.3145 12.4707C84.9235 13.0827 85.2438 13.8437 85.2873 14.7538H78.1457C78.2051 13.9026 78.553 13.1572 79.1897 12.5178ZM96.3555 12.7846C96.8814 12.1412 97.6248 11.8195 98.5818 11.8195C99.6178 11.8195 100.373 12.1098 100.852 12.6943C101.33 13.2789 101.567 14.0517 101.567 15.0206V23.5567H105.031V14.4282C105.031 12.7493 104.584 11.3763 103.687 10.3093C102.789 9.24224 101.484 8.70873 99.7721 8.70873C98.8942 8.70873 98.0756 8.90095 97.3085 9.28539C96.5414 9.66983 95.9284 10.2583 95.4697 11.0507V9.12455H92.0927V23.5528H95.5567V15.2246C95.5567 14.236 95.8217 13.4201 96.3476 12.7806L96.3555 12.7846ZM23.8289 14.7225C23.6312 15.558 23.3464 16.3583 22.9866 17.1154L18.4866 14.9971C18.8701 14.6048 19.2142 14.1772 19.5186 13.7221L23.8328 14.7264L23.8289 14.7225ZM18.0437 15.4168C17.9567 15.4953 17.8657 15.5737 17.7748 15.6483C17.5889 15.8012 17.3991 15.9464 17.2054 16.0837C17.1065 16.1504 17.0076 16.2171 16.9088 16.2838L21.0608 19.9791C21.6144 19.371 22.1008 18.7042 22.52 17.9941L18.0476 15.4168H18.0437ZM16.3947 16.5897C16.027 16.7898 15.6434 16.9703 15.244 17.1193L18.3877 22.1916C19.0758 21.7718 19.7164 21.2893 20.3016 20.744L16.3908 16.5897H16.3947ZM14.6943 17.3076C14.3345 17.4175 13.9628 17.5038 13.5832 17.5665L15.1926 23.5528C15.9558 23.3527 16.6873 23.0781 17.3833 22.7408L14.6983 17.3076H14.6943ZM12.9979 17.6489C12.8516 17.6607 12.7053 17.6724 12.559 17.6803C12.5076 17.6803 12.4601 17.6842 12.4087 17.6881C12.4008 17.6881 12.3929 17.6881 12.3811 17.6881C12.3652 17.6881 12.3534 17.6881 12.3376 17.6881H12.2189C12.1675 17.6921 12.1201 17.6921 12.0687 17.6921C12.0173 17.6921 11.9698 17.6921 11.9184 17.6921C11.9144 17.6921 11.9065 17.6921 11.9026 17.6921L11.7404 23.9529C11.7721 23.9529 11.8037 23.9529 11.8393 23.9529C11.9144 23.9529 11.9935 23.9529 12.0687 23.9529C12.1438 23.9529 12.2229 23.9529 12.298 23.9529C12.8753 23.9412 13.4408 23.8902 13.9944 23.8039L12.994 17.645L12.9979 17.6489ZM10.2813 17.4135L8.38321 23.1684C9.03568 23.4665 9.73164 23.6862 10.4592 23.8156L11.2897 17.6411C10.9417 17.594 10.6016 17.5155 10.2773 17.4096L10.2813 17.4135ZM8.79842 16.6839L5.62703 21.2305C5.68635 21.2932 5.74566 21.3521 5.80498 21.4109C5.85638 21.4619 5.91174 21.5129 5.96711 21.5639C6.07783 21.6659 6.18855 21.764 6.30322 21.862C6.33881 21.8934 6.3744 21.9209 6.40999 21.9523C6.47326 22.0033 6.53653 22.0543 6.5998 22.1053C6.66307 22.1563 6.73029 22.2033 6.79752 22.2543C6.92801 22.3524 7.06246 22.4426 7.20086 22.5329L9.67233 17.1821C9.36389 17.0409 9.07127 16.8761 8.79446 16.6878L8.79842 16.6839ZM7.58048 15.558L3.85153 18.5394C3.9148 18.6845 3.97807 18.8297 4.04925 18.9709C4.10065 19.0768 4.15602 19.1827 4.21138 19.2847C4.25092 19.3593 4.29046 19.4299 4.33396 19.5044C4.33792 19.5123 4.34582 19.5201 4.34978 19.5319C4.34978 19.5397 4.35769 19.5436 4.36164 19.5515C4.44468 19.6927 4.53168 19.8339 4.62263 19.9673C4.64635 20.0026 4.67008 20.0418 4.69776 20.0771C4.72149 20.1125 4.74917 20.1478 4.77289 20.187L8.26458 16.2641C8.01941 16.0484 7.79401 15.813 7.58839 15.5619L7.58048 15.558ZM6.74216 14.1458L3.17138 15.5933C3.19906 16.1033 3.27024 16.5976 3.38096 17.0801C3.38887 17.1193 3.39678 17.1546 3.40864 17.1939C3.41655 17.2174 3.42051 17.2449 3.42842 17.2684L7.17318 14.9774C7.01105 14.7146 6.8687 14.4361 6.74611 14.1497L6.74216 14.1458ZM6.34277 12.5531L3.4561 12.8395C3.32956 13.3102 3.23861 13.8006 3.19511 14.2988L6.5049 13.4436C6.42976 13.1572 6.3744 12.8591 6.34277 12.557V12.5531ZM4.44468 10.5329C4.417 10.5799 4.38932 10.6231 4.36164 10.6702C4.2786 10.8075 4.20347 10.9487 4.12833 11.0899C4.08088 11.184 4.03343 11.2821 3.98598 11.3802C3.94248 11.4783 3.89503 11.5763 3.85549 11.6744L6.31904 11.7607C6.3309 11.4665 6.36254 11.184 6.4179 10.9016L4.44864 10.5289L4.44468 10.5329ZM5.84452 8.78719C5.57958 9.04217 5.33441 9.31285 5.10506 9.59922L6.62748 10.121C6.71843 9.85812 6.82915 9.60314 6.95569 9.35992L5.84452 8.78719ZM7.43812 7.55541C7.16527 7.72017 6.90033 7.8967 6.65121 8.08892L7.40649 8.63027C7.56466 8.41452 7.73865 8.2066 7.92451 8.01438L7.44208 7.55149L7.43812 7.55541ZM9.09895 6.77084C8.83796 6.86107 8.57697 6.96698 8.32785 7.08075L8.59279 7.42596C8.79842 7.27297 9.01195 7.13174 9.23735 7.00621L9.1029 6.77084H9.09895ZM10.7598 6.36286C10.5106 6.39817 10.2655 6.44524 10.0243 6.50016L10.0678 6.61785C10.2971 6.53547 10.5304 6.46486 10.7716 6.40994L10.7598 6.36286ZM11.8433 0C11.6772 0 11.515 0.0078457 11.349 0.0196143C10.6688 0.0588428 10.0045 0.156914 9.35993 0.30206C8.85378 0.415822 8.35948 0.564891 7.88101 0.741419C7.26809 0.965021 6.67889 1.23962 6.12133 1.55345C5.65076 1.81628 5.19996 2.11442 4.77289 2.43609C4.2786 2.80876 3.80803 3.22066 3.37701 3.66787C2.98553 4.068 2.62568 4.49951 2.29352 4.95064C1.94158 5.42922 1.62919 5.93527 1.35239 6.46486C1.08349 6.97875 0.850184 7.51618 0.656421 8.0693C0.470567 8.60281 0.320302 9.15593 0.213535 9.72475C0.102813 10.3132 0.0316348 10.9173 0.00790869 11.5293C0 11.6783 0 11.8235 0 11.9725C0 12.3727 0.0197717 12.7689 0.0593152 13.1612C0.122585 13.7967 0.237261 14.4165 0.395434 15.0206C0.529882 15.5306 0.699919 16.0288 0.897636 16.5074C1.14676 17.1193 1.45124 17.6999 1.79527 18.2569C2.06021 18.6806 2.35283 19.0886 2.66523 19.477C3.0923 20.0065 3.56682 20.4969 4.07693 20.9441C4.43677 21.2579 4.81244 21.5521 5.20787 21.8228C5.78916 22.2229 6.40208 22.5682 7.0506 22.8624C7.46185 23.0507 7.88496 23.2154 8.32389 23.3567C9.01195 23.5803 9.72769 23.745 10.4632 23.8431C10.8863 23.898 11.3173 23.9333 11.7523 23.9451C11.3134 23.9294 10.8863 23.8823 10.4671 23.8039C9.73955 23.6705 9.04358 23.4508 8.39112 23.1566C7.97987 22.9722 7.58839 22.7565 7.21272 22.5132C7.07432 22.423 6.93987 22.3328 6.80938 22.2347C6.74216 22.1876 6.67889 22.1366 6.61166 22.0856C6.54839 22.0347 6.48512 21.9876 6.42185 21.9327C6.38627 21.9013 6.35068 21.8738 6.31509 21.8424C6.20041 21.7444 6.08969 21.6463 5.97897 21.5443C5.92361 21.4933 5.8722 21.4423 5.81684 21.3913C5.75752 21.3325 5.69821 21.2736 5.63889 21.2109C5.32255 20.8853 5.03388 20.5361 4.77289 20.1674C4.74917 20.1321 4.72149 20.0968 4.69776 20.0575C4.67403 20.0222 4.64635 19.983 4.62263 19.9477C4.53168 19.8104 4.44468 19.6731 4.36164 19.5319C4.35769 19.524 4.35373 19.5201 4.34978 19.5123C4.34582 19.5044 4.34187 19.4966 4.33396 19.4848C4.29046 19.4142 4.25092 19.3397 4.21138 19.2651C4.15602 19.1631 4.10065 19.0572 4.04925 18.9513C3.97807 18.8101 3.9148 18.6649 3.85153 18.5198C3.76454 18.3119 3.68149 18.104 3.61032 17.8882C3.54309 17.6842 3.47982 17.4802 3.42842 17.2684V17.2527H3.42051C3.4126 17.2213 3.40864 17.1978 3.40074 17.1742C3.39283 17.1389 3.38096 17.0997 3.37306 17.0605C3.26233 16.578 3.19116 16.0837 3.16348 15.5737C3.15557 15.4129 3.15161 15.252 3.15161 15.0912C3.15161 14.8833 3.15952 14.6793 3.17138 14.4753C3.17138 14.4243 3.17929 14.3772 3.18325 14.3263C3.18325 14.3106 3.18325 14.2949 3.18325 14.2753C3.22674 13.7692 3.31769 13.2828 3.44423 12.812C3.48773 12.6473 3.53518 12.4864 3.59054 12.3256C3.61032 12.2628 3.63404 12.2001 3.65381 12.1412C3.67359 12.0785 3.69731 12.0196 3.72104 11.9568C3.76058 11.8549 3.80012 11.7529 3.84362 11.6509C3.88712 11.5528 3.93062 11.4547 3.97412 11.3567C4.02157 11.2586 4.06902 11.1605 4.11647 11.0664C4.18765 10.9251 4.26674 10.7839 4.34978 10.6466C4.37746 10.5995 4.40514 10.5564 4.43282 10.5093C4.63054 10.1837 4.85198 9.86989 5.08924 9.57568C5.31859 9.28931 5.56772 9.01863 5.8287 8.76365C6.08178 8.51651 6.35463 8.28506 6.63539 8.0693C6.88847 7.87708 7.14945 7.69663 7.4223 7.5358C7.70702 7.36319 8.00359 7.20628 8.31203 7.06505C8.56116 6.95129 8.82214 6.84537 9.08313 6.75515C9.38366 6.64923 9.6921 6.55901 10.0084 6.48447C10.2497 6.42955 10.4948 6.38248 10.744 6.34325C11.0603 6.29618 11.3846 6.26479 11.7128 6.25302C11.78 6.25302 11.8433 6.2491 11.9105 6.2491C11.863 6.2491 11.8116 6.2491 11.7642 6.25302C11.8116 6.25302 11.863 6.25302 11.9105 6.25302C11.9619 6.25302 12.0093 6.25302 12.0607 6.25302V0C11.9817 0 11.9065 0 11.8314 0H11.8433ZM20.4123 11.9765C20.4123 11.9765 20.3965 12.0157 20.3886 12.0353C20.3807 12.0549 20.3728 12.0745 20.3649 12.0941C20.3491 12.1334 20.3332 12.1726 20.3174 12.2079C20.2858 12.2864 20.2542 12.3609 20.2186 12.4354C20.1751 12.5374 20.1276 12.6355 20.0762 12.7336C20.0011 12.8826 19.9259 13.0278 19.8429 13.169L23.9989 13.8045C24.0899 13.2082 24.1413 12.5963 24.1413 11.9725H20.4084L20.4123 11.9765ZM20.2225 12.4354C20.2581 12.357 20.2897 12.2824 20.3214 12.204C20.3372 12.1648 20.353 12.1255 20.3688 12.0902C20.3767 12.0706 20.3846 12.051 20.3926 12.0314C20.4005 12.0118 20.4084 11.9922 20.4163 11.9725H17.8341C17.8341 12.2707 17.8104 12.5649 17.7669 12.8513C17.7431 12.9964 17.7155 13.1416 17.6838 13.2828C17.5929 13.679 17.4545 14.0595 17.2844 14.4165C17.2172 14.5616 17.1421 14.7028 17.059 14.8362C16.8613 15.1775 16.6241 15.4953 16.3591 15.7895C16.2444 15.915 16.1219 16.0405 15.9993 16.1543C15.7185 16.4132 15.4101 16.6447 15.0858 16.8447C14.9316 16.9389 14.7734 17.0291 14.6073 17.1076C14.2791 17.2684 13.9312 17.3978 13.5713 17.492L13.5871 17.5587C13.9667 17.4959 14.3385 17.4057 14.6983 17.2958C14.8842 17.2409 15.0661 17.1782 15.248 17.1076C15.6473 16.9585 16.0309 16.778 16.3987 16.578C16.5727 16.4838 16.7427 16.3818 16.9088 16.2759C17.0076 16.2131 17.1104 16.1425 17.2054 16.0758C17.4031 15.9385 17.5929 15.7934 17.7748 15.6404C17.8657 15.5619 17.9567 15.4874 18.0437 15.405C18.0832 15.3697 18.1188 15.3383 18.1583 15.303C18.2691 15.1971 18.3798 15.0912 18.4866 14.9814C18.8701 14.5891 19.2142 14.1615 19.5186 13.7064C19.6373 13.5299 19.748 13.3495 19.8508 13.1651C19.9338 13.0239 20.009 12.8748 20.0841 12.7297C20.1316 12.6316 20.179 12.5335 20.2265 12.4315L20.2225 12.4354ZM17.9092 11.9765H12.1992V16.7741H15.5959L17.7708 14.5459L17.9053 11.9765H17.9092ZM28.6255 10.8388C27.2019 12.2824 26.4902 14.1105 26.4902 16.323C26.4902 18.5355 27.2019 20.3674 28.6255 21.8228C30.0491 23.2743 31.8483 24 34.0192 24C36.1902 24 38.0171 23.2743 39.4406 21.8228C40.8642 20.3714 41.576 18.5394 41.576 16.323C41.576 14.1066 40.8642 12.2824 39.4406 10.8388C38.0171 9.39523 36.2099 8.67342 34.0192 8.67342C31.8285 8.67342 30.0491 9.39523 28.6255 10.8388ZM29.9542 16.323C29.9542 14.899 30.3456 13.7888 31.1326 12.9886C31.9195 12.1883 32.8804 11.7882 34.0153 11.7882C35.1502 11.7882 36.1111 12.1883 36.898 12.9886C37.6849 13.7888 38.0764 14.899 38.0764 16.323C38.0764 17.747 37.6809 18.8925 36.898 19.7006C36.1111 20.5126 35.1502 20.9166 34.0153 20.9166C32.8804 20.9166 31.9195 20.5087 31.1326 19.6849C30.3456 18.865 29.9542 17.7431 29.9542 16.3191V16.323ZM44.0712 21.0226C44.3203 21.4855 44.6683 21.9523 45.1151 22.4152C45.562 22.8781 46.1788 23.2586 46.9657 23.5567C47.7527 23.8549 48.6424 24 49.6389 24C51.3709 24 52.7193 23.5293 53.6881 22.5917C54.653 21.6541 55.1354 20.5832 55.1354 19.375C55.1354 18.2883 54.7756 17.3586 54.0598 16.5897C53.3441 15.8209 52.3081 15.2873 50.9517 14.9892L48.7412 14.5459C47.7645 14.3498 47.2781 13.8437 47.2781 13.0356C47.2781 12.5806 47.4759 12.1922 47.8752 11.8666C48.2746 11.541 48.7729 11.3763 49.37 11.3763C50.2281 11.3763 50.8687 11.5999 51.2958 12.0432C51.7228 12.4864 51.9759 12.9886 52.0589 13.5417L54.9852 12.71C54.9258 12.2942 54.7874 11.8784 54.566 11.4665C54.3485 11.0507 54.0322 10.6231 53.6249 10.1759C53.2176 9.73259 52.6442 9.37169 51.9087 9.09317C51.1732 8.81857 50.3269 8.67735 49.37 8.67735C47.8752 8.67735 46.6099 9.13632 45.5738 10.0543C44.5378 10.9722 44.0198 12.0667 44.0198 13.3298C44.0198 14.3576 44.3598 15.2481 45.036 15.9974C45.7122 16.7466 46.681 17.2605 47.9346 17.5391L50.0857 18.0137C51.2206 18.2491 51.79 18.7826 51.79 19.6143C51.79 20.0889 51.5963 20.4851 51.2088 20.799C50.8212 21.1167 50.2874 21.2736 49.6112 21.2736C48.7333 21.2736 48.0374 21.0382 47.5194 20.5636C47.0013 20.0889 46.7127 19.5083 46.6534 18.814L43.6362 19.6456C43.6757 20.1007 43.8181 20.5597 44.0712 21.0226ZM62.8938 12.7375C63.4198 12.1255 64.1434 11.8195 65.0608 11.8195C66.0969 11.8195 66.8521 12.1098 67.3306 12.6943C67.8091 13.2789 68.0464 14.0517 68.0464 15.0206V23.5567H71.5104V14.4282C71.5104 12.7493 71.0517 11.3763 70.1342 10.3093C69.2168 9.24224 67.904 8.70873 66.1918 8.70873C64.3609 8.70873 62.9729 9.31285 62.0397 10.5172V2.0948H58.5757V23.5528H62.0397V15.0755C62.0792 14.1262 62.364 13.3455 62.8899 12.7336L62.8938 12.7375ZM82.0289 21.0382C80.9533 21.0382 80.032 20.6813 79.2648 19.9712C78.4977 19.2612 78.0943 18.3629 78.0548 17.2723H88.692C88.7513 17.1546 88.7829 16.7898 88.7829 16.1739C88.7829 13.883 88.1542 12.0588 86.9007 10.7055C85.6471 9.35208 83.9033 8.67342 81.673 8.67342C79.7631 8.67342 78.1023 9.38346 76.6985 10.8075C75.2947 12.2314 74.5908 14.0477 74.5908 16.2602C74.5908 18.6139 75.3144 20.489 76.7578 21.8934C78.2011 23.2978 79.9608 23.9961 82.0329 23.9961C83.7056 23.9961 85.1133 23.5646 86.2601 22.7055C87.4068 21.8464 88.1858 20.7558 88.605 19.4299L85.6788 18.5119C85.1212 20.1909 83.9072 21.0304 82.0329 21.0304L82.0289 21.0382ZM79.1897 12.5178C79.8263 11.8745 80.6647 11.5528 81.7007 11.5528C82.8356 11.5528 83.7056 11.8588 84.3145 12.4707C84.9235 13.0827 85.2438 13.8437 85.2873 14.7538H78.1457C78.2051 13.9026 78.553 13.1572 79.1897 12.5178ZM96.3555 12.7846C96.8814 12.1412 97.6248 11.8195 98.5818 11.8195C99.6178 11.8195 100.373 12.1098 100.852 12.6943C101.33 13.2789 101.567 14.0517 101.567 15.0206V23.5567H105.031V14.4282C105.031 12.7493 104.584 11.3763 103.687 10.3093C102.789 9.24224 101.484 8.70873 99.7721 8.70873C98.8942 8.70873 98.0756 8.90095 97.3085 9.28539C96.5414 9.66983 95.9284 10.2583 95.4697 11.0507V9.12455H92.0927V23.5528H95.5567V15.2246C95.5567 14.236 95.8217 13.4201 96.3476 12.7806L96.3555 12.7846Z" fill="url(#paint0_linear_121_370)"/>
</g>
<defs>
<linearGradient id="paint0_linear_121_370" x1="0" y1="12" x2="105.031" y2="12" gradientUnits="userSpaceOnUse">
<stop stop-color="#00D67C"/>
<stop offset="0.661458" stop-color="#B6F3D7"/>
<stop offset="1" stop-color="#DBF059"/>
</linearGradient>
<clipPath id="clip0_121_370">
<rect width="105.035" height="24" fill="white"/>
</clipPath>
</defs>
</svg>
